<svg version="1.0" xmlns="http://www.w3.org/2000/svg"
 width="1280.000000pt" height="1280.000000pt" viewBox="0 0 1280.000000 1280.000000"
 preserveAspectRatio="xMidYMid meet">
<metadata>
Created by potrace 1.15, written by Peter Selinger 2001-2017
</metadata>
<g transform="translate(0.000000,1280.000000) scale(0.100000,-0.100000)"
fill="#000000" stroke="none">
<path d="M5340 12216 c-25 -7 -90 -31 -145 -54 -55 -23 -149 -61 -210 -86
-154 -63 -188 -66 -300 -23 -109 43 -239 80 -360 104 -70 14 -141 18 -320 18
-203 0 -243 -3 -345 -24 -291 -60 -511 -162 -750 -349 -125 -97 -208 -180
-270 -271 -137 -202 -195 -350 -325 -821 -42 -151 -93 -327 -114 -390 -22 -63
-45 -142 -51 -175 -21 -104 -69 -241 -185 -530 -107 -267 -155 -411 -155 -466
0 -14 -18 -68 -41 -120 -89 -205 -161 -445 -200 -666 -27 -154 -30 -434 -6
-568 9 -49 30 -234 47 -410 48 -518 75 -721 125 -949 93 -430 184 -595 655
-1191 91 -115 195 -248 230 -295 147 -197 475 -546 700 -743 232 -204 495
-389 685 -482 102 -49 135 -81 171 -161 51 -110 53 -251 9 -564 -13 -91 -26
-195 -30 -232 -6 -66 -8 -69 -146 -268 -183 -265 -374 -527 -512 -704 -119
-152 -297 -364 -342 -406 -51 -48 -128 -27 -258 71 -50 38 -80 53 -110 56 -84
10 -227 -32 -314 -90 -39 -27 -56 -46 -80 -95 0 -2 -77 8 -170 23 -92 15 -211
33 -263 42 -128 20 -217 12 -297 -28 -92 -45 -108 -66 -224 -314 -18 -38 -35
-73 -37 -77 -2 -4 52 19 120 51 141 68 232 98 321 107 56 6 72 3 142 -26 205
-82 267 -90 815 -100 463 -9 525 -13 571 -36 76 -38 300 -122 344 -129 27 -4
62 -13 76 -21 44 -22 96 -92 125 -166 29 -72 49 -98 64 -82 5 5 24 35 44 67
44 74 60 144 46 198 -19 71 -61 105 -235 191 -88 43 -169 89 -180 102 -11 13
-46 40 -78 61 -63 41 -97 78 -97 105 0 23 65 137 143 255 115 171 250 341 576
725 135 158 315 384 392 490 29 41 92 113 139 160 47 47 179 181 295 299 115
117 218 219 230 226 38 25 265 55 490 65 293 14 448 41 708 123 71 23 79 24
83 9 3 -10 26 -58 51 -108 53 -106 53 -85 2 -381 -39 -231 -92 -469 -199 -888
-152 -596 -140 -556 -177 -571 -97 -41 -211 1 -369 135 -101 86 -186 89 -342
11 -84 -42 -167 -111 -160 -132 6 -17 64 -27 169 -27 54 -1 143 -12 240 -32
219 -44 233 -56 98 -85 -97 -21 -394 -13 -599 16 -175 24 -251 25 -313 4 -115
-39 -204 -195 -210 -370 -2 -68 -2 -69 22 -66 14 1 60 25 104 53 89 58 160 90
230 108 85 21 387 31 622 21 216 -10 531 -35 569 -47 11 -3 72 -7 135 -9 133
-3 201 -19 308 -71 86 -42 205 -148 288 -257 50 -65 69 -75 105 -56 35 19 43
72 26 163 -35 176 -89 234 -337 362 -82 43 -163 90 -180 106 -25 24 -29 33
-24 66 44 331 83 534 171 883 109 436 249 867 298 919 48 52 66 106 97 292 51
313 98 345 529 364 375 17 644 -53 1275 -330 121 -53 288 -124 370 -157 83
-33 249 -107 370 -165 395 -189 548 -241 735 -250 172 -8 331 36 408 114 74
75 85 78 278 79 138 1 178 5 207 19 40 19 64 60 69 120 l3 40 -265 178 c-965
646 -1415 928 -1808 1134 -159 84 -160 85 -143 177 16 89 0 143 -68 226 -22
26 -49 78 -65 125 -72 205 -174 401 -393 758 -116 190 -139 234 -172 335 -78
237 -205 479 -358 684 -85 114 -329 364 -438 450 -53 42 -128 126 -300 339
-275 340 -444 544 -579 699 -454 516 -868 876 -1314 1141 -112 67 -117 71
-138 123 -12 30 -65 131 -118 224 -162 285 -223 449 -212 568 4 33 23 125 43
205 31 126 36 161 38 280 3 134 12 202 42 309 43 150 137 317 248 439 59 63
213 189 268 217 l28 15 -26 21 c-70 55 -223 75 -335 44z m228 -22 c12 -4 22
-9 22 -13 -1 -3 -41 -34 -91 -69 -139 -98 -285 -217 -390 -320 l-97 -93 -26
110 c-15 61 -28 133 -29 161 -2 44 2 54 23 71 115 90 473 183 588 153z m-119
-202 c-196 -202 -321 -390 -336 -502 -3 -22 -10 -43 -15 -46 -5 -3 -29 12 -55
33 -25 21 -55 45 -66 54 -20 16 -19 19 85 140 104 122 230 249 318 321 47 38
190 138 198 138 2 0 -56 -62 -129 -138z m-606 -143 c59 -16 107 -64 107 -106
0 -30 -5 -36 -36 -49 -33 -14 -41 -14 -83 1 -64 23 -188 31 -237 15 -94 -30
-149 -105 -142 -194 3 -28 8 -58 12 -67 6 -15 0 -16 -56 -12 -127 10 -236 -54
-454 -268 -131 -129 -161 -153 -229 -185 -171 -82 -285 -31 -285 128 0 72 38
194 85 271 19 32 35 66 35 75 0 34 48 118 91 160 24 24 76 59 114 77 130 63
258 88 669 130 131 13 241 27 244 30 9 9 126 5 165 -6z m-56 -175 c52 -33 74
-125 49 -201 -41 -123 -145 -145 -250 -53 -67 59 -83 118 -47 176 53 87 175
126 248 78z m221 -247 c67 -71 89 -325 45 -517 -17 -73 -81 -212 -101 -218 -7
-2 -30 14 -51 37 -21 23 -43 41 -49 41 -16 0 -68 73 -93 130 -11 25 -42 118
-69 207 -27 90 -54 171 -59 182 -10 18 -7 19 49 20 76 0 128 23 203 90 64 56
92 63 125 28z m-1908 -201 c0 -30 51 -76 92 -82 27 -5 35 -10 26 -15 -21 -14
-72 -10 -96 7 -27 19 -55 71 -48 90 7 18 26 18 26 0z m1360 -267 c28 -6 51 -5
79 5 38 13 40 13 30 -5 -11 -21 -59 -49 -84 -49 -32 0 -86 33 -101 62 l-15 29
25 -16 c14 -10 44 -21 66 -26z m-344 -50 c33 -37 49 -40 96 -19 51 23 69 25
62 6 -13 -33 -97 -47 -143 -23 -26 13 -59 57 -44 57 6 0 18 -9 29 -21z m-200
-54 c-24 -36 -58 -41 -119 -17 l-52 21 48 0 c57 1 114 23 125 48 6 16 7 15 10
-5 2 -13 -4 -34 -12 -47z m-785 -21 c31 3 64 8 75 11 10 3 1 -4 -21 -14 -81
-41 -150 -37 -175 9 -10 18 -9 19 27 3 27 -11 54 -14 94 -9z m1524 -14 c36 0
22 -18 -20 -26 -38 -7 -60 4 -68 35 -4 18 -2 18 29 5 18 -8 45 -14 59 -14z
m-2050 -59 c54 -34 133 -56 173 -47 l27 6 -30 -17 c-43 -24 -138 -22 -172 4
-24 17 -62 83 -48 83 2 0 25 -13 50 -29z m972 -51 c20 0 45 7 55 17 26 23 30
12 10 -28 -15 -30 -22 -34 -60 -37 -39 -3 -47 1 -78 33 -19 20 -34 46 -34 57
0 18 3 17 35 -11 26 -23 46 -31 72 -31z m501 0 c12 0 35 8 50 17 26 17 27 17
12 -2 -32 -44 -54 -65 -70 -65 -18 0 -51 32 -69 68 l-12 22 33 -20 c18 -11 43
-20 56 -20z m-1143 -150 c4 -6 30 -24 58 -40 56 -32 138 -41 179 -19 16 9 19
8 16 -2 -7 -20 -58 -47 -104 -54 -35 -6 -45 -3 -83 27 -48 36 -100 98 -83 98
6 0 14 -5 17 -10z m1291 -106 c19 -3 65 -4 101 -2 l67 4 -49 -23 c-59 -27
-140 -31 -173 -7 -19 13 -52 63 -52 78 0 3 16 -6 36 -19 20 -13 51 -27 70 -31z
m-490 -61 c38 -51 75 -46 136 17 53 55 59 54 25 -5 -28 -50 -83 -80 -132 -71
-65 12 -111 92 -88 152 5 14 9 9 20 -21 7 -21 25 -53 39 -72z m-1030 -78 c-36
-55 -229 -165 -289 -165 -37 0 -80 26 -101 60 -17 30 -22 115 -7 124 5 3 23
-17 41 -44 19 -29 42 -53 56 -56 30 -8 105 16 219 70 50 24 92 42 94 40 2 -2
-4 -15 -13 -29z m1114 -135 c34 0 34 -1 -23 -27 l-58 -26 -32 32 -32 33 55 -6
c30 -3 71 -6 90 -6z m-650 -29 c-5 -11 -28 -35 -51 -55 -83 -70 -192 -68 -272
6 -25 24 -34 37 -22 33 98 -33 236 -27 313 13 20 11 38 20 40 21 1 0 -2 -8 -8
-18z m222 -26 l68 0 -34 -34 -34 -34 -61 38 c-34 21 -61 40 -61 42 0 2 12 0
28 -4 15 -5 57 -8 94 -8z m-1151 -80 c-8 -39 -8 -39 -16 -12 -5 18 -3 33 5 42
17 21 19 16 11 -30z m2073 -51 c109 -124 273 -141 334 -34 12 21 25 30 42 30
35 0 45 -9 59 -52 19 -57 55 -81 117 -76 27 2 71 15 98 27 l47 23 117 -42
c147 -53 181 -70 372 -188 636 -391 1067 -760 1396 -1198 104 -139 246 -366
273 -438 24 -64 23 -443 -2 -548 -18 -76 -47 -128 -71 -128 -7 0 -49 48 -93
108 -152 202 -386 427 -534 514 -34 21 -65 36 -67 34 -2 -3 31 -40 74 -83 438
-443 608 -777 437 -858 -54 -26 -111 -29 -183 -11 -157 40 -308 155 -642 485
-142 140 -258 250 -258 244 0 -29 130 -190 350 -433 136 -151 155 -175 145
-189 -16 -26 -118 -44 -220 -38 -125 8 -194 26 -315 84 -84 40 -107 58 -201
152 -58 58 -127 131 -152 161 l-47 55 16 -39 c29 -73 77 -148 131 -206 46 -50
53 -63 53 -98 0 -32 -6 -45 -26 -61 -15 -12 -36 -21 -48 -21 -61 0 -227 141
-416 355 -51 58 -95 103 -98 101 -10 -11 46 -108 171 -294 151 -224 188 -289
192 -341 2 -20 7 -54 10 -76 6 -35 3 -45 -18 -71 -82 -97 -362 -61 -662 85
-210 103 -391 253 -467 388 -46 81 -47 48 -1 -39 103 -197 287 -389 412 -431
24 -8 39 -17 33 -21 -22 -13 -192 -46 -274 -52 -105 -8 -206 8 -286 46 -69 33
-180 138 -306 290 -108 131 -110 131 -21 0 105 -154 185 -258 228 -297 47 -42
58 -90 27 -115 -27 -22 -58 -23 -135 -3 -168 44 -422 203 -564 354 l-44 46 24
-44 c34 -62 144 -161 295 -265 71 -49 131 -91 133 -93 2 -1 -2 -9 -9 -18 -32
-39 -181 -6 -342 77 -197 100 -338 229 -429 389 -35 62 -29 32 11 -57 34 -76
93 -169 133 -211 32 -35 59 -128 50 -176 -14 -71 -111 -76 -248 -13 -170 79
-429 277 -531 406 -31 40 -65 70 -95 86 -101 51 -267 172 -349 254 -305 304
-357 668 -168 1163 17 45 68 160 114 256 46 96 84 179 84 186 0 6 -14 24 -31
41 -27 25 -30 34 -26 71 6 55 65 177 111 230 30 35 42 41 64 38 46 -8 475 -73
523 -80 117 -15 75 100 -100 273 -82 82 -106 125 -34 62 81 -72 203 -101 272
-66 57 30 111 114 111 176 0 9 6 6 16 -9 35 -50 153 -67 245 -36 66 23 139 83
168 139 24 47 24 49 8 79 -10 16 -16 31 -15 32 12 9 115 21 127 15 9 -5 49
-18 89 -30 39 -11 72 -22 72 -23 0 -2 -24 -3 -54 -4 -157 -4 -284 -145 -205
-229 32 -34 107 -48 228 -41 150 8 335 50 371 83 13 12 12 16 -5 33 -11 11
-47 36 -80 57 -33 20 -51 33 -40 30 63 -23 192 -56 233 -62 49 -6 92 6 92 27
0 6 13 27 29 47 32 41 51 91 51 133 0 27 3 29 38 29 32 0 43 -7 86 -56z
m-1725 0 c-56 -59 -147 -114 -186 -114 -45 0 -97 25 -128 62 -33 39 -32 50 3
32 15 -7 44 -14 65 -14 53 0 179 27 229 50 24 10 45 19 47 19 3 1 -11 -15 -30
-35z m4794 -2493 c294 -392 507 -738 507 -823 0 -42 -23 -44 -93 -9 -165 82
-444 349 -586 562 l-48 72 23 34 c29 43 43 108 51 239 3 57 7 104 9 104 2 0
64 -80 137 -179z m-5619 -63 c115 -233 509 -557 921 -758 229 -112 385 -160
521 -160 l65 0 102 -79 c537 -414 1534 -891 2778 -1327 l165 -58 57 -77 c355
-477 644 -627 986 -509 48 16 95 30 103 30 20 0 277 -87 383 -129 171 -69 594
-285 581 -298 -2 -2 -24 2 -49 11 -180 61 -444 106 -621 106 -197 0 -235 -10
-426 -108 -91 -47 -228 -117 -305 -156 -215 -111 -397 -169 -710 -230 -164
-31 -502 -79 -755 -106 -165 -18 -219 -28 -352 -68 -148 -43 -158 -48 -170
-77 -26 -64 -132 -207 -224 -304 -148 -156 -256 -229 -370 -250 -63 -12 -139
4 -171 35 -22 22 -23 30 -23 159 0 74 9 239 20 367 12 127 17 235 13 239 -4 4
-46 24 -93 44 -788 336 -1668 1267 -2180 2310 -168 342 -273 642 -319 914 -35
204 -25 456 21 569 l11 27 7 -32 c4 -18 19 -56 34 -85z m4052 -319 c119 -27
414 -37 527 -17 75 14 79 14 117 -8 91 -52 179 -131 450 -404 157 -159 294
-293 305 -298 28 -14 63 2 75 34 21 56 -15 136 -170 374 -108 167 -145 230
-135 230 4 0 18 -15 33 -32 55 -66 225 -249 421 -452 331 -342 437 -472 693
-848 181 -267 271 -391 347 -478 79 -90 80 -94 9 -52 -35 21 -117 62 -183 92
-130 59 -209 104 -240 140 -11 12 -36 35 -55 50 l-36 28 29 -58 c52 -105 48
-222 -11 -292 -51 -61 -117 -72 -197 -34 l-50 24 52 1 c28 1 62 5 75 10 41 15
76 60 87 110 23 109 -57 311 -194 481 -86 109 -280 308 -439 452 l-109 98 -23
-21 c-92 -86 -474 137 -1308 764 -93 70 -167 127 -165 127 3 0 45 -9 95 -21z
m2366 -256 c180 -273 268 -473 268 -610 0 -63 -13 -99 -48 -135 -43 -46 -82
-37 -166 41 -40 37 -126 147 -126 161 0 5 13 3 28 -2 65 -25 102 14 102 108 0
85 -77 404 -125 517 -16 39 7 12 67 -80z m-2597 -119 c584 -499 889 -704 1207
-809 164 -54 276 -75 441 -82 l148 -6 26 -31 c37 -44 73 -125 73 -164 0 -130
-176 -173 -435 -108 -284 72 -693 273 -1190 586 -275 173 -460 280 -484 280
-35 0 42 -60 452 -350 208 -148 283 -209 254 -210 -28 0 -173 77 -497 265
-371 216 -510 288 -510 265 0 -12 121 -93 380 -255 228 -143 380 -243 380
-251 0 -16 -184 66 -630 279 -190 91 -471 225 -625 299 -154 74 -324 154 -377
178 -54 25 -98 47 -98 50 0 3 10 18 23 34 l23 28 142 -12 c234 -21 346 -7 418
53 l29 24 155 -19 c85 -10 223 -19 305 -21 177 -2 199 5 210 73 4 22 10 40 14
40 3 0 78 -61 166 -136z m2444 38 c53 -104 48 -163 -21 -238 -67 -73 -137 -80
-279 -27 -78 29 -86 40 -15 22 105 -26 218 12 268 90 27 42 29 52 26 119 -2
39 -2 72 -1 72 1 0 11 -17 22 -38z m-4418 -256 c265 -149 2548 -1161 2964
-1315 l30 -11 -35 6 c-120 21 -989 338 -1670 609 -646 258 -978 409 -1067 487
-28 24 -92 77 -144 120 -146 119 -176 158 -78 104z m524 -23 c208 -65 558
-217 1125 -491 636 -306 866 -408 1090 -486 203 -70 276 -99 355 -138 124 -61
124 -70 -2 -44 -422 90 -1339 476 -2633 1109 l-175 86 80 -6 c44 -3 116 -17
160 -30z m4533 -522 c73 -131 103 -261 67 -291 -35 -29 -245 19 -377 86 -83
42 -185 110 -240 162 -50 46 -108 118 -108 133 0 4 26 -8 57 -27 149 -89 302
-116 398 -68 52 26 77 63 83 123 l5 51 39 -52 c22 -29 56 -82 76 -117z m-1068
-221 c49 -98 80 -202 80 -272 0 -82 -23 -122 -87 -150 -40 -18 -60 -20 -137
-15 -78 5 -256 45 -293 66 -7 3 34 5 90 3 176 -7 288 36 335 128 31 59 27 157
-10 247 -31 77 -18 72 22 -7z m788 -19 c114 -46 277 -91 326 -91 56 0 77 11
83 41 7 35 7 35 50 8 55 -34 79 -103 50 -143 -12 -17 -28 -18 -173 -14 -173 5
-207 13 -294 72 -69 47 -201 190 -159 174 7 -3 60 -24 117 -47z m104 -200
c102 -47 213 -85 312 -106 99 -20 121 -19 145 6 19 21 19 21 23 -41 1 -34 1
-64 -1 -66 -10 -10 -142 -3 -196 11 -139 36 -333 154 -450 275 l-50 52 67 -46
c37 -26 104 -64 150 -85z m-44 -90 c209 -152 418 -254 577 -282 36 -6 65 -16
65 -23 -1 -23 -29 -88 -46 -107 -13 -14 -30 -19 -68 -19 -105 1 -235 78 -387
229 -89 90 -227 251 -214 251 3 0 36 -22 73 -49z m-207 -197 c269 -134 409
-234 466 -331 20 -35 25 -53 21 -91 -3 -26 -13 -60 -22 -75 l-18 -27 -132 0
c-140 0 -231 12 -281 37 -36 18 -324 197 -321 200 0 1 74 -23 162 -52 253 -85
438 -115 476 -77 44 44 -108 201 -399 410 -63 45 -112 82 -109 82 4 0 74 -34
157 -76z m-1271 -47 c0 -16 64 -77 111 -105 97 -58 316 -125 572 -176 l158
-32 -19 -24 c-63 -77 -379 1 -742 186 -58 29 -123 64 -144 77 l-40 25 30 15
c17 9 36 23 43 31 16 19 31 21 31 3z m1952 -383 c123 -83 219 -211 204 -270
-16 -63 -135 -70 -266 -15 -99 41 -239 123 -220 129 94 27 141 81 144 163 l1
51 35 -6 c19 -3 65 -26 102 -52z m-657 -91 c161 -64 263 -120 572 -314 204
-129 408 -246 833 -479 173 -95 358 -197 410 -227 134 -78 340 -215 340 -226
0 -18 -125 1 -206 31 -264 99 -1057 531 -1624 885 -247 154 -599 394 -600 409
0 11 177 -40 275 -79z m1111 -198 c56 -35 215 -139 355 -233 264 -176 376
-243 889 -529 315 -176 580 -331 580 -338 0 -18 -492 229 -730 367 -385 223
-1062 631 -1144 690 -77 55 -136 116 -136 141 0 10 67 -25 186 -98z m329 -5
c320 -154 1622 -948 1654 -1008 19 -35 12 -44 -16 -24 -16 10 -35 21 -43 24
-8 3 -89 54 -180 113 -567 371 -927 586 -1347 802 -112 58 -203 110 -203 117
0 35 20 31 135 -24z m-874 -44 c36 -8 117 -30 179 -50 61 -20 148 -42 191 -51
74 -14 89 -21 241 -123 518 -346 1086 -665 1423 -801 109 -44 122 -51 81 -46
-69 9 -295 77 -439 131 -148 56 -228 96 -362 179 -134 82 -341 196 -725 397
-407 214 -697 378 -665 378 6 0 40 -7 76 -14z m-1919 -972 c74 -52 74 -47 24
-175 -99 -257 -203 -607 -280 -944 -81 -355 -170 -852 -155 -871 5 -6 49 -26
97 -44 136 -51 240 -109 307 -171 33 -32 57 -61 52 -65 -4 -4 -56 7 -115 26
-59 18 -186 57 -282 87 l-175 53 -345 0 c-190 0 -443 3 -563 7 l-218 6 -70 55
c-38 30 -69 56 -67 57 2 2 82 -4 178 -12 249 -21 638 -13 771 16 225 49 269
74 269 156 0 23 11 75 25 116 93 270 184 648 325 1344 72 355 74 361 108 380
33 18 65 12 114 -21z m-2422 -736 c-23 -29 -126 -152 -229 -273 -280 -329
-333 -399 -442 -585 -24 -41 -110 -163 -190 -270 -215 -286 -308 -427 -240
-366 19 18 20 17 18 -61 -2 -71 0 -78 17 -76 23 2 165 -59 231 -99 66 -40 95
-67 95 -90 0 -23 -17 -23 -72 1 -24 10 -86 30 -138 45 -52 15 -129 43 -171 62
-88 39 -129 42 -184 13 -21 -12 -66 -25 -99 -30 -121 -17 -433 24 -836 110
-350 75 -320 65 -358 122 -18 28 -31 53 -28 56 2 3 98 -15 213 -40 400 -88
585 -116 793 -123 109 -3 171 -1 209 8 l54 13 121 180 c67 99 257 370 423 601
166 232 358 507 428 612 l125 190 93 -5 c88 -5 94 -4 147 25 30 17 57 31 58
31 2 1 -15 -23 -38 -51z m-1674 -1372 c53 -29 213 -156 197 -156 -26 0 -507
72 -524 79 -20 7 -20 7 1 34 42 54 110 78 206 73 54 -2 82 -9 120 -30z"/>
<path d="M4649 11640 c-55 -29 -89 -75 -89 -120 0 -31 6 -44 35 -68 31 -28 88
-52 123 -52 29 0 70 31 81 61 20 59 8 141 -27 182 -20 23 -77 21 -123 -3z m9
-92 c19 -19 14 -45 -10 -51 -28 -8 -38 -1 -38 27 0 36 24 48 48 24z"/>
<path d="M4210 9940 c-24 -46 34 -156 110 -206 43 -29 108 -40 165 -30 42 8
111 67 156 133 37 53 36 57 -3 33 -67 -41 -216 -12 -339 66 -47 29 -75 31 -89
4z"/>
<path d="M4990 9847 c-57 -26 -176 -29 -232 -4 -44 19 -48 9 -18 -40 21 -35
81 -83 130 -103 24 -10 39 -10 74 0 63 17 98 57 104 120 2 27 1 50 -4 49 -5 0
-29 -10 -54 -22z"/>
<path d="M5152 9823 c-18 -7 -43 -59 -36 -77 12 -31 65 -31 141 0 29 13 32 17
23 34 -20 37 -87 60 -128 43z"/>
<path d="M4071 9747 c-19 -24 -24 -74 -11 -129 11 -45 24 -65 88 -130 81 -84
97 -90 148 -59 53 32 87 86 92 145 4 46 1 56 -24 85 -32 38 -68 56 -169 82
-84 22 -109 23 -124 6z"/>
<path d="M4666 9732 c-9 -11 -35 -25 -59 -32 -23 -7 -59 -21 -79 -31 -31 -16
-38 -25 -38 -48 0 -37 44 -76 96 -86 70 -13 112 45 113 158 1 60 -6 68 -33 39z"/>
<path d="M3855 9689 c-214 -23 -295 -43 -295 -72 0 -26 40 -55 92 -67 83 -18
228 -24 275 -11 36 10 43 16 48 44 4 18 5 51 3 72 -4 47 -4 47 -123 34z"/>
<path d="M5120 9671 c-81 -25 -130 -73 -130 -128 0 -30 4 -36 38 -48 20 -8 67
-31 103 -50 77 -40 108 -44 135 -14 36 40 19 170 -31 223 -25 27 -63 32 -115
17z"/>
<path d="M4762 9653 c-9 -22 -8 -178 1 -214 7 -28 57 -49 115 -49 42 0 75 42
66 84 -13 59 -74 166 -104 181 -39 20 -69 19 -78 -2z"/>
<path d="M3047 9642 c-36 -40 -14 -85 67 -136 78 -50 157 -76 231 -76 57 0 66
3 93 30 22 22 40 30 66 30 82 0 43 48 -83 100 -159 67 -338 92 -374 52z"/>
<path d="M5423 9596 c-16 -14 -34 -41 -40 -60 l-11 -36 46 0 c54 0 88 15 109
47 14 20 13 24 -11 48 -32 31 -56 32 -93 1z"/>
<path d="M4448 9553 c-9 -10 -23 -42 -33 -72 -12 -35 -24 -55 -37 -59 -29 -7
-18 -35 22 -54 69 -35 196 -16 239 36 11 13 9 20 -7 43 -27 38 -70 77 -112
102 -43 25 -53 26 -72 4z"/>
<path d="M2751 9551 c-13 -4 -29 -14 -34 -23 -27 -42 85 -179 192 -233 47 -23
55 -25 69 -12 11 10 52 16 122 20 162 9 177 24 83 84 -170 109 -363 182 -432
164z"/>
<path d="M3805 9504 c-11 -3 -59 -14 -107 -25 -48 -12 -92 -27 -99 -35 -32
-38 108 -157 298 -253 79 -40 200 -54 222 -27 20 24 26 118 11 171 -15 55 -69
119 -124 147 -40 21 -154 33 -201 22z"/>
<path d="M5005 9405 c-21 -20 -25 -34 -25 -80 l0 -55 69 0 c54 0 74 4 95 21
30 24 28 48 -8 88 -20 23 -74 51 -96 51 -6 0 -22 -11 -35 -25z"/>
<path d="M5450 9399 c-19 -4 -45 -20 -59 -35 -20 -24 -23 -35 -18 -84 7 -81
26 -112 86 -140 l51 -24 33 31 c17 17 52 41 75 54 40 21 72 61 72 88 0 6 -14
26 -30 45 -46 51 -140 81 -210 65z"/>
<path d="M3272 9335 c-40 -43 -98 -61 -260 -81 -131 -16 -161 -23 -180 -47
-21 -25 20 -61 125 -113 54 -26 110 -56 125 -66 46 -32 132 -16 186 35 64 59
101 202 68 265 -23 44 -28 44 -64 7z"/>
<path d="M4242 9329 c-56 -26 -62 -32 -56 -52 4 -12 10 -37 15 -55 9 -43 13
-46 43 -38 29 7 146 120 146 141 0 18 -31 35 -62 34 -13 0 -51 -14 -86 -30z"/>
<path d="M3453 9339 c-61 -14 -71 -32 -39 -70 32 -38 32 -40 1 -77 l-25 -30
40 -35 c50 -43 143 -74 257 -86 114 -13 253 4 253 30 0 21 -107 105 -265 208
-116 76 -131 80 -222 60z"/>
<path d="M4785 9320 c3 -11 5 -20 3 -20 -2 0 -28 7 -58 15 -107 29 -171 14
-155 -35 18 -56 293 -300 339 -300 9 0 28 11 41 25 34 33 32 78 -6 154 -47 95
-186 231 -164 161z"/>
<path d="M2084 9300 c-122 -69 -137 -149 -33 -175 24 -6 26 -10 22 -53 -3 -33
1 -58 15 -84 l19 -37 -98 -61 c-100 -62 -135 -95 -145 -137 -8 -32 4 -93 19
-93 17 0 187 179 217 228 20 34 29 41 45 36 60 -19 97 -15 205 21 62 21 108
41 103 46 -4 4 -67 31 -138 60 -72 28 -131 52 -132 53 0 0 54 2 120 3 168 3
403 22 433 35 29 14 40 44 22 65 -44 54 -348 123 -543 123 -70 0 -86 -4 -131
-30z"/>
<path d="M5813 9313 c-22 -8 -14 -48 18 -97 29 -43 34 -47 63 -41 43 10 76 32
76 53 0 45 -110 104 -157 85z"/>
<path d="M4409 9251 c-107 -69 -208 -221 -156 -235 6 -2 77 -25 156 -51 l145
-47 48 50 c26 28 48 60 48 72 0 55 -139 240 -181 240 -8 0 -35 -13 -60 -29z"/>
<path d="M5063 9203 c-22 -8 -14 -47 15 -82 l28 -33 56 11 c32 7 67 20 80 30
19 16 20 21 9 35 -25 30 -148 56 -188 39z"/>
<path d="M5660 9141 c-5 -11 -10 -38 -10 -61 0 -48 10 -54 90 -55 53 0 55 1
58 28 3 22 -6 37 -36 67 -44 45 -85 53 -102 21z"/>
<path d="M2693 9109 c-36 -11 -82 -61 -84 -92 -2 -40 2 -52 34 -85 66 -68 198
-79 306 -25 75 37 79 64 21 127 -57 61 -111 86 -186 85 -32 0 -73 -5 -91 -10z"/>
<path d="M4045 9091 c-28 -6 -30 -9 -28 -53 1 -55 21 -101 46 -106 26 -5 71
32 98 82 21 40 22 47 9 60 -18 17 -84 26 -125 17z"/>
<path d="M6036 9084 c-10 -27 -7 -61 8 -73 18 -15 98 -24 115 -12 34 22 -41
101 -95 101 -12 0 -25 -7 -28 -16z"/>
<path d="M3384 9066 c-42 -18 -74 -62 -74 -100 0 -43 45 -131 80 -156 55 -39
135 -18 164 45 l17 36 -49 67 c-28 37 -56 79 -63 95 -14 30 -29 33 -75 13z"/>
<path d="M5313 9069 c-18 -18 -16 -76 3 -132 l16 -47 77 0 c111 0 140 24 106
90 -33 64 -169 124 -202 89z"/>
<path d="M3560 8992 c0 -8 199 -137 265 -171 49 -26 55 -26 116 0 44 19 49 25
48 53 0 50 -22 99 -49 113 -28 14 -380 19 -380 5z"/>
<path d="M4745 8988 c-103 -58 -143 -144 -88 -188 32 -25 109 -60 132 -60 25
0 100 52 150 103 l43 45 -68 37 c-38 21 -83 46 -100 57 -36 21 -42 21 -69 6z"/>
<path d="M3090 8946 c-41 -19 -101 -45 -132 -59 l-57 -26 16 -47 c20 -58 85
-127 138 -144 77 -25 215 11 292 76 l22 19 -102 107 -102 108 -75 -34z"/>
<path d="M5796 8954 c-23 -22 -20 -44 14 -97 l29 -46 46 15 c56 20 89 57 74
86 -13 24 -83 57 -121 58 -15 0 -34 -7 -42 -16z"/>
<path d="M2469 8890 c-84 -63 -176 -162 -200 -215 -10 -22 -19 -59 -19 -83 0
-35 6 -49 30 -74 34 -33 59 -34 124 -3 78 37 225 184 292 290 16 26 16 28 1
16 -33 -26 -76 1 -142 91 l-20 28 -66 -50z"/>
<path d="M4127 8922 c-34 -38 -15 -82 70 -163 67 -64 128 -105 256 -173 114
-60 132 -59 204 6 32 28 59 55 61 58 5 13 -82 102 -137 139 -171 116 -407 185
-454 133z"/>
<path d="M6263 8909 c-18 -18 -16 -39 7 -76 23 -39 30 -40 86 -13 51 25 62 47
35 73 -24 24 -110 35 -128 16z"/>
<path d="M2105 8806 c-18 -19 -52 -74 -75 -123 -24 -48 -47 -90 -51 -93 -27
-19 -37 -114 -18 -169 19 -54 45 -38 120 74 120 178 147 252 115 313 -22 42
-50 41 -91 -2z"/>
<path d="M5474 8816 c-26 -21 -27 -25 -15 -53 16 -39 58 -79 92 -86 49 -12
158 77 143 116 -10 26 -68 47 -132 47 -50 0 -66 -4 -88 -24z"/>
<path d="M4970 8781 c-41 -26 -86 -60 -100 -75 -25 -27 -25 -28 -5 -42 35 -26
125 -46 181 -42 90 8 124 59 94 145 -9 26 -61 63 -88 63 -4 0 -41 -22 -82 -49z"/>
<path d="M2765 8801 c-103 -62 -183 -262 -155 -386 6 -28 22 -67 36 -88 23
-35 27 -37 62 -32 123 21 197 61 251 136 33 44 76 162 68 183 -3 7 -21 16 -40
20 -59 11 -116 61 -146 127 -14 32 -30 59 -36 59 -5 0 -24 -8 -40 -19z"/>
<path d="M3605 8766 c-59 -39 -91 -51 -100 -36 -3 5 -11 10 -17 10 -18 0 0
-90 28 -137 29 -50 90 -98 144 -114 32 -10 43 -8 81 11 51 26 164 139 196 196
l22 39 -58 -3 c-50 -3 -69 1 -132 32 -41 20 -83 36 -94 36 -11 0 -43 -15 -70
-34z"/>
<path d="M5950 8777 c-91 -32 -69 -157 28 -157 71 1 168 65 160 106 -8 43
-123 74 -188 51z"/>
<path d="M6517 8763 c-17 -16 -4 -83 30 -155 20 -43 40 -78 45 -78 19 0 77 67
79 90 4 54 -2 71 -41 110 -31 31 -48 40 -73 40 -19 0 -37 -3 -40 -7z"/>
<path d="M4019 8713 c-56 -52 -194 -212 -188 -217 2 -2 23 -13 46 -25 127 -64
287 21 301 159 4 46 2 52 -16 57 -12 3 -30 20 -41 39 -11 19 -27 34 -36 34 -9
0 -38 -21 -66 -47z"/>
<path d="M5220 8694 c0 -9 -15 -31 -33 -49 -42 -42 -115 -58 -244 -53 l-95 3
47 -43 c65 -58 159 -87 260 -79 74 5 150 31 172 59 40 48 14 122 -56 158 -48
24 -51 24 -51 4z"/>
<path d="M3255 8618 c-52 -23 -86 -31 -134 -32 -63 -1 -64 -2 -82 -36 -18 -35
-59 -205 -59 -245 0 -46 23 -96 66 -144 43 -48 49 -51 93 -51 66 0 115 37 178
136 66 103 83 138 99 199 24 89 17 132 -29 183 -26 29 -47 27 -132 -10z"/>
<path d="M4263 8636 c11 -28 -17 -79 -63 -118 -59 -48 -56 -96 11 -172 57 -66
144 -96 275 -96 l82 0 35 40 c35 38 77 111 91 158 7 20 4 22 -29 22 -94 0
-262 67 -354 140 -31 25 -52 36 -48 26z"/>
<path d="M6136 8627 c-23 -12 -48 -38 -59 -60 -39 -75 -1 -141 127 -221 89
-55 133 -60 173 -20 25 25 25 29 21 109 -7 97 -33 156 -87 192 -46 31 -121 31
-175 0z"/>
<path d="M5660 8613 c-57 -21 -67 -77 -19 -117 37 -32 76 -33 130 -6 85 44
104 91 44 116 -33 14 -125 18 -155 7z"/>
<path d="M2184 8510 c34 -293 88 -473 151 -502 64 -29 175 51 253 181 23 39
42 75 42 80 0 5 -24 61 -54 125 -36 75 -59 114 -68 112 -7 -3 -44 -14 -81 -26
-113 -36 -155 -29 -215 38 l-33 37 5 -45z"/>
<path d="M3498 8513 c-42 -48 -106 -226 -115 -320 -7 -76 7 -115 52 -143 59
-37 120 -21 144 39 16 36 10 159 -12 261 -8 41 -19 97 -24 124 -9 55 -22 65
-45 39z"/>
<path d="M6714 8515 c-11 -28 37 -205 61 -225 49 -41 108 108 73 185 -21 47
-120 76 -134 40z"/>
<path d="M4755 8495 c-27 -79 -70 -147 -130 -203 -95 -91 -82 -103 94 -83 88
11 111 29 118 93 6 56 -18 142 -51 183 -23 28 -25 29 -31 10z"/>
<path d="M1824 8440 c7 -52 57 -159 84 -183 17 -16 23 -15 90 7 105 36 194 78
185 87 -5 5 -60 11 -123 15 l-115 7 -64 56 -64 56 7 -45z"/>
<path d="M5310 8459 c-123 -13 -235 -57 -266 -104 -15 -23 -15 -27 -1 -49 20
-30 137 -76 193 -76 72 0 134 29 197 91 105 105 59 156 -123 138z"/>
<path d="M3612 8435 c-37 -81 23 -165 118 -165 48 0 92 48 88 97 -3 37 -4 38
-64 54 -33 9 -70 22 -82 28 -32 17 -48 13 -60 -14z"/>
<path d="M5795 8405 c-29 -28 -30 -43 -11 -88 18 -43 67 -84 143 -119 129 -58
166 -24 130 117 -13 47 -17 52 -76 83 -81 41 -150 44 -186 7z"/>
<path d="M3973 8399 c-48 -14 -143 -108 -143 -142 0 -25 3 -27 46 -27 67 0
110 25 151 87 20 29 40 53 44 53 21 0 6 19 -22 29 -36 12 -33 12 -76 0z"/>
<path d="M4897 8343 c-4 -3 -7 -15 -7 -25 0 -45 -60 -127 -114 -155 -16 -8
-57 -18 -93 -21 l-64 -7 118 -89 117 -88 64 4 c56 4 68 8 89 33 22 25 25 36
21 94 -4 69 -35 152 -85 224 -26 37 -34 43 -46 30z"/>
<path d="M4078 8286 c-70 -82 -170 -110 -305 -83 -84 16 -84 17 -58 -69 44
-150 177 -236 280 -180 17 9 38 16 47 16 28 0 80 52 104 105 40 85 29 245 -16
252 -8 2 -32 -17 -52 -41z"/>
<path d="M1781 8192 c-6 -49 -11 -107 -11 -130 0 -41 1 -42 34 -42 69 0 115
71 94 147 -10 36 -75 113 -96 113 -5 0 -14 -40 -21 -88z"/>
<path d="M2840 8258 c-30 -11 -80 -20 -111 -20 l-56 0 -11 -76 c-7 -43 -12
-122 -12 -178 0 -250 78 -297 236 -140 38 39 92 104 118 144 l49 74 -24 51
c-41 87 -97 167 -116 166 -10 -1 -43 -10 -73 -21z"/>
<path d="M6920 8245 c0 -9 13 -42 30 -74 24 -48 35 -61 60 -66 17 -4 34 -4 37
-1 13 13 -11 57 -57 104 -53 54 -70 63 -70 37z"/>
<path d="M4277 8223 c-8 -43 3 -83 28 -99 19 -13 31 -13 67 -4 51 14 98 37 98
49 0 13 -111 68 -151 76 -34 6 -37 5 -42 -22z"/>
<path d="M2006 8200 c-79 -73 -136 -211 -136 -329 0 -126 14 -136 89 -66 60
56 105 140 131 241 45 176 10 240 -84 154z"/>
<path d="M2177 8200 c-10 -25 -75 -299 -91 -389 -22 -117 -21 -147 5 -154 45
-12 192 160 221 257 10 32 10 40 -1 44 -7 2 -28 18 -46 34 -35 30 -61 91 -74
176 -5 27 -10 41 -14 32z"/>
<path d="M5322 8172 c-54 -20 -92 -47 -92 -67 0 -6 12 -23 28 -37 26 -25 33
-26 161 -30 l135 -3 23 34 c29 42 29 72 2 97 -31 28 -184 31 -257 6z"/>
<path d="M3616 8061 c-24 -126 -21 -131 76 -131 67 0 69 1 62 23 -13 44 -103
207 -114 207 -3 0 -14 -45 -24 -99z"/>
<path d="M6710 8099 c72 -65 349 -293 362 -298 17 -6 0 75 -26 128 -46 90
-149 159 -299 200 -42 11 -81 21 -85 21 -4 -1 18 -23 48 -51z"/>
<path d="M4234 8105 c10 -44 71 -170 101 -209 30 -40 75 -61 110 -52 40 10 58
59 63 170 l4 98 -28 -21 c-67 -49 -184 -43 -230 12 l-27 32 7 -30z"/>
<path d="M3200 8084 c-30 -8 -61 -21 -69 -28 -19 -20 -61 -189 -68 -276 -14
-182 62 -252 202 -186 90 43 163 138 210 275 l24 71 -37 19 c-20 11 -70 47
-111 80 -41 34 -79 61 -85 60 -6 0 -36 -7 -66 -15z"/>
<path d="M2484 8005 c-91 -55 -139 -194 -111 -327 9 -45 51 -98 77 -98 31 0
77 47 109 112 35 68 37 104 16 193 -8 33 -15 79 -15 103 0 51 -15 54 -76 17z"/>
<path d="M4626 8021 c-12 -18 -76 -196 -76 -208 0 -10 28 -13 108 -13 l107 0
22 33 c41 61 40 83 -4 125 -22 21 -59 44 -82 51 -24 7 -49 15 -56 17 -7 3 -16
1 -19 -5z"/>
<path d="M6603 8022 c-23 -14 259 -369 363 -457 55 -46 96 -75 107 -75 16 0 5
42 -29 107 -106 205 -377 465 -441 425z"/>
<path d="M4199 7943 c-6 -15 -26 -64 -46 -108 -63 -140 -65 -155 -36 -206 35
-62 60 -86 109 -105 35 -13 49 -14 78 -4 46 15 100 79 127 149 23 62 36 120
24 109 -15 -14 -60 21 -142 106 -46 47 -88 86 -93 86 -6 0 -15 -12 -21 -27z"/>
<path d="M4025 7912 c-47 -26 -57 -27 -190 -27 -77 0 -168 4 -202 8 -59 8 -62
8 -79 -17 -61 -94 -22 -313 71 -395 46 -40 95 -53 156 -40 85 18 165 102 291
305 l66 107 -21 44 c-11 23 -26 43 -31 42 -6 0 -33 -13 -61 -27z"/>
<path d="M5322 7924 c-32 -22 -30 -76 4 -103 15 -12 35 -21 45 -21 10 0 21 -5
24 -10 11 -18 84 -50 114 -50 51 0 69 65 31 113 -25 31 -133 87 -169 87 -15 0
-37 -7 -49 -16z"/>
<path d="M5615 7930 c-16 -25 118 -166 148 -154 27 10 39 52 22 84 -27 52
-149 103 -170 70z"/>
<path d="M2823 7735 c-107 -107 -108 -112 -55 -189 84 -121 190 -134 265 -34
18 24 18 28 2 109 -25 125 -66 209 -102 209 -8 0 -58 -43 -110 -95z"/>
<path d="M6020 7772 c0 -22 190 -244 324 -378 150 -149 277 -246 355 -273 49
-16 101 -14 123 6 15 13 22 14 44 4 79 -36 21 10 -441 349 -137 101 -285 210
-327 242 -43 32 -78 55 -78 50z"/>
<path d="M1930 7682 c0 -27 65 -156 125 -249 120 -184 232 -261 286 -197 10
12 -4 31 -77 107 -50 51 -143 152 -208 225 -64 72 -119 132 -122 132 -2 0 -4
-8 -4 -18z"/>
<path d="M5610 7532 c0 -17 10 -57 22 -89 52 -140 234 -243 433 -246 97 -2
116 13 38 29 -180 37 -383 164 -465 293 l-28 45 0 -32z"/>
<path d="M4625 7470 c121 -242 356 -531 499 -615 63 -37 120 -39 148 -5 18 22
20 35 15 120 -3 60 -13 121 -28 165 l-23 70 -6 -65 c-6 -64 -22 -108 -44 -122
-24 -16 -74 -7 -122 23 -69 44 -186 160 -327 324 -66 77 -124 145 -129 150 -6
6 2 -15 17 -45z"/>
<path d="M2435 7438 c28 -220 110 -400 248 -545 100 -105 185 -150 210 -112 8
13 -12 46 -98 160 -128 171 -280 399 -325 487 -18 34 -34 62 -37 62 -3 0 -2
-24 2 -52z"/>
<path d="M3210 7393 c0 -61 128 -250 269 -396 142 -147 263 -227 346 -227 42
0 85 22 85 43 0 7 -52 43 -115 82 -236 142 -460 332 -548 465 -28 41 -37 49
-37 33z"/>
<path d="M3810 7334 c0 -3 25 -52 57 -108 161 -289 305 -431 419 -413 46 8 91
50 106 99 13 46 7 55 -27 40 -64 -29 -151 -4 -254 73 -56 41 -191 178 -255
258 -25 32 -46 55 -46 51z"/>
<path d="M2113 6805 c-61 -26 -63 -77 -5 -138 31 -32 77 -47 150 -47 47 0 53
3 62 26 43 111 -88 211 -207 159z"/>
<path d="M2610 6516 c-16 -35 -33 -77 -36 -94 -6 -27 -4 -30 28 -35 60 -9 68
3 68 103 0 112 -15 119 -60 26z"/>
<path d="M2001 6436 c-12 -15 -3 -46 23 -79 14 -18 16 -18 60 2 57 25 68 47
37 73 -28 22 -103 25 -120 4z"/>
<path d="M2250 6411 c-5 -11 -10 -31 -10 -44 0 -41 40 -158 56 -164 22 -8 89
41 104 76 16 40 1 79 -47 121 -40 35 -87 40 -103 11z"/>
<path d="M2897 6229 c-19 -11 -47 -60 -47 -84 0 -12 12 -15 53 -15 95 0 154
29 140 68 -12 34 -106 54 -146 31z"/>
<path d="M3144 6135 c-35 -35 -66 -107 -51 -117 17 -11 81 -10 111 2 34 13 60
54 52 84 -15 58 -69 73 -112 31z"/>
<path d="M2014 6135 c-8 -19 2 -74 22 -120 14 -34 16 -35 68 -35 92 0 100 51
20 127 -47 46 -99 58 -110 28z"/>
<path d="M2563 6124 c-22 -23 -25 -32 -21 -80 3 -30 7 -57 11 -60 3 -3 21 -9
40 -14 29 -6 40 -3 67 18 18 14 39 41 47 60 12 30 12 37 -2 58 -32 49 -102 58
-142 18z"/>
<path d="M2330 5981 c0 -13 69 -71 85 -71 57 0 58 35 3 60 -46 21 -88 26 -88
11z"/>
<path d="M3241 5875 c-87 -41 -161 -114 -161 -161 0 -26 17 -34 71 -34 57 0
101 22 136 66 60 76 79 136 47 148 -25 10 -36 7 -93 -19z"/>
<path d="M2803 5880 c-59 -24 -65 -97 -9 -131 45 -27 61 -24 111 22 53 49 63
74 39 100 -19 21 -99 26 -141 9z"/>
<path d="M3527 5784 c-13 -14 -7 -74 13 -124 42 -105 17 -166 -78 -189 -108
-27 -122 -32 -122 -43 0 -23 85 -89 134 -103 112 -34 165 -4 182 103 9 60 -21
196 -64 281 -36 72 -51 89 -65 75z"/>
<path d="M2455 5727 c-24 -37 -35 -85 -35 -153 0 -55 2 -62 22 -67 48 -13 57
4 73 133 11 87 -25 140 -60 87z"/>
<path d="M3875 5613 c39 -95 30 -139 -51 -260 -65 -96 -72 -119 -54 -153 14
-27 80 -43 117 -29 71 27 102 89 103 206 0 98 -23 170 -72 220 -35 36 -54 43
-43 16z"/>
<path d="M2688 5593 c-44 -11 -24 -78 47 -160 30 -35 43 -43 71 -43 74 0 125
49 104 99 -24 59 -157 121 -222 104z"/>
<path d="M4329 5590 c-8 -5 -44 -14 -79 -19 -77 -13 -95 -27 -85 -69 7 -35 74
-143 113 -184 35 -38 92 -39 121 -2 27 34 37 107 23 174 -18 84 -54 123 -93
100z"/>
<path d="M3035 5460 c-13 -14 -18 -37 -19 -82 l-1 -62 44 -9 c62 -12 119 5
127 39 9 34 -13 81 -51 110 -39 29 -76 31 -100 4z"/>
<path d="M4740 5253 c0 -23 43 -84 87 -126 27 -25 36 -28 88 -25 76 4 92 24
51 67 -34 36 -138 89 -188 98 -33 5 -38 3 -38 -14z"/>
<path d="M2822 5217 c-68 -81 43 -287 155 -287 55 0 54 34 -3 146 -70 137
-118 182 -152 141z"/>
<path d="M3310 5215 c0 -3 -7 -70 -16 -148 -27 -238 -2 -324 115 -398 50 -32
92 -37 111 -14 11 13 5 23 -34 65 -73 78 -80 102 -81 270 0 160 -10 195 -60
218 -29 13 -35 14 -35 7z"/>
<path d="M4170 5063 c-31 -11 -71 -58 -81 -97 -19 -71 10 -153 83 -232 39 -43
59 -51 93 -38 21 9 48 62 40 82 -3 8 -8 52 -11 96 -5 80 -28 151 -55 172 -19
16 -51 23 -69 17z"/>
<path d="M4444 5041 c-27 -12 -37 -37 -24 -61 5 -10 33 -39 62 -65 60 -54 80
-55 158 -7 37 23 45 33 45 57 0 26 -7 33 -48 54 -52 25 -157 37 -193 22z"/>
<path d="M3596 5018 c-42 -59 7 -172 104 -243 55 -40 75 -43 91 -14 23 44 -24
185 -83 247 -39 40 -88 44 -112 10z"/>
<path d="M4823 4744 c-20 -5 -18 -8 22 -46 47 -43 60 -67 50 -97 -8 -26 -52
-42 -164 -61 -54 -9 -96 -21 -99 -28 -2 -7 23 -25 63 -43 66 -31 69 -32 183
-27 132 6 188 23 227 70 46 54 23 133 -54 185 -51 35 -170 59 -228 47z"/>
<path d="M3526 4484 c-7 -19 17 -77 50 -121 48 -63 206 -130 240 -102 30 25
-18 109 -70 125 -12 4 -41 23 -65 43 -70 57 -94 71 -122 71 -15 0 -30 -7 -33
-16z"/>
<path d="M4150 4475 c-26 -31 6 -80 120 -181 66 -58 100 -61 134 -12 42 59 -4
142 -104 187 -54 24 -132 28 -150 6z"/>
<path d="M5073 4383 c-18 -27 -23 -117 -8 -162 13 -42 134 -17 156 33 17 35 3
74 -40 118 -47 46 -83 50 -108 11z"/>
<path d="M4017 4303 c-16 -16 -4 -47 34 -88 45 -49 75 -56 138 -34 37 13 40
37 7 68 -41 39 -159 75 -179 54z"/>
<path d="M4220 4032 c0 -16 46 -51 123 -92 66 -36 82 -41 116 -35 78 13 71 48
-16 86 -89 38 -223 63 -223 41z"/>
<path d="M7316 6586 c8 -27 14 -87 14 -133 0 -69 -3 -86 -20 -103 -20 -20 -20
-20 36 -102 97 -143 240 -305 494 -559 238 -238 391 -369 431 -369 119 0 -144
378 -717 1030 -94 107 -189 215 -212 240 l-41 45 15 -49z"/>
</g>
</svg>
